STARTFONT 2.1
FONT -Misc-UnifontPlusAquarius-Medium-R-SemiCondensed--16-120-75-75-C-60-ISO10646-1
SIZE 16 75 75
FONTBOUNDINGBOX 8 16 0 0
STARTPROPERTIES 20
FONTNAME_REGISTRY ""
FOUNDRY "Misc"
FAMILY_NAME "UnifontPlusAquarius"
WEIGHT_NAME "Medium"
SLANT "R"
SETWIDTH_NAME "SemiCondensed"
ADD_STYLE_NAME ""
PIXEL_SIZE 16
POINT_SIZE 120
RESOLUTION_X 75
RESOLUTION_Y 75
SPACING "C"
AVERAGE_WIDTH 60
CHARSET_REGISTRY "ISO10646"
CHARSET_ENCODING "1"
DEFAULT_CHAR 0
FONT_DESCENT 0
FONT_ASCENT 16
COPYRIGHT "Unknown"
ENDPROPERTIES
CHARS 189
STARTCHAR char32
ENCODING 32
SWIDTH 960 0
DWIDTH 8 0
BBX 8 16 0 0
BITMAP
00
00
00
00
00
00
00
00
00
00
00
00
00
00
00
00
ENDCHAR
STARTCHAR char33
ENCODING 33
SWIDTH 960 0
DWIDTH 8 0
BBX 8 16 0 0
BITMAP
00
00
00
00
08
08
08
08
08
08
08
00
08
08
00
00
ENDCHAR
STARTCHAR char34
ENCODING 34
SWIDTH 960 0
DWIDTH 8 0
BBX 8 16 0 0
BITMAP
00
00
22
22
22
22
00
00
00
00
00
00
00
00
00
00
ENDCHAR
STARTCHAR char35
ENCODING 35
SWIDTH 960 0
DWIDTH 8 0
BBX 8 16 0 0
BITMAP
00
00
00
00
12
12
12
7E
24
24
7E
48
48
48
00
00
ENDCHAR
STARTCHAR char36
ENCODING 36
SWIDTH 960 0
DWIDTH 8 0
BBX 8 16 0 0
BITMAP
00
00
00
00
08
3E
49
48
38
0E
09
49
3E
08
00
00
ENDCHAR
STARTCHAR char37
ENCODING 37
SWIDTH 960 0
DWIDTH 8 0
BBX 8 16 0 0
BITMAP
00
00
00
00
31
4A
4A
34
08
08
16
29
29
46
00
00
ENDCHAR
STARTCHAR char38
ENCODING 38
SWIDTH 960 0
DWIDTH 8 0
BBX 8 16 0 0
BITMAP
00
00
00
00
1C
22
22
14
18
29
45
42
46
39
00
00
ENDCHAR
STARTCHAR char39
ENCODING 39
SWIDTH 960 0
DWIDTH 8 0
BBX 8 16 0 0
BITMAP
00
00
08
08
08
08
00
00
00
00
00
00
00
00
00
00
ENDCHAR
STARTCHAR char40
ENCODING 40
SWIDTH 960 0
DWIDTH 8 0
BBX 8 16 0 0
BITMAP
00
00
00
04
08
08
10
10
10
10
10
10
08
08
04
00
ENDCHAR
STARTCHAR char41
ENCODING 41
SWIDTH 960 0
DWIDTH 8 0
BBX 8 16 0 0
BITMAP
00
00
00
20
10
10
08
08
08
08
08
08
10
10
20
00
ENDCHAR
STARTCHAR char42
ENCODING 42
SWIDTH 960 0
DWIDTH 8 0
BBX 8 16 0 0
BITMAP
00
00
00
00
00
00
08
49
2A
1C
2A
49
08
00
00
00
ENDCHAR
STARTCHAR char43
ENCODING 43
SWIDTH 960 0
DWIDTH 8 0
BBX 8 16 0 0
BITMAP
00
00
00
00
00
00
08
08
08
7F
08
08
08
00
00
00
ENDCHAR
STARTCHAR char44
ENCODING 44
SWIDTH 960 0
DWIDTH 8 0
BBX 8 16 0 0
BITMAP
00
00
00
00
00
00
00
00
00
00
00
00
18
08
08
10
ENDCHAR
STARTCHAR char45
ENCODING 45
SWIDTH 960 0
DWIDTH 8 0
BBX 8 16 0 0
BITMAP
00
00
00
00
00
00
00
00
00
3C
00
00
00
00
00
00
ENDCHAR
STARTCHAR char46
ENCODING 46
SWIDTH 960 0
DWIDTH 8 0
BBX 8 16 0 0
BITMAP
00
00
00
00
00
00
00
00
00
00
00
00
18
18
00
00
ENDCHAR
STARTCHAR char47
ENCODING 47
SWIDTH 960 0
DWIDTH 8 0
BBX 8 16 0 0
BITMAP
00
00
00
00
02
02
04
08
08
10
10
20
40
40
00
00
ENDCHAR
STARTCHAR char48
ENCODING 48
SWIDTH 960 0
DWIDTH 8 0
BBX 8 16 0 0
BITMAP
00
00
00
00
18
24
42
46
4A
52
62
42
24
18
00
00
ENDCHAR
STARTCHAR char49
ENCODING 49
SWIDTH 960 0
DWIDTH 8 0
BBX 8 16 0 0
BITMAP
00
00
00
00
08
18
28
08
08
08
08
08
08
3E
00
00
ENDCHAR
STARTCHAR char50
ENCODING 50
SWIDTH 960 0
DWIDTH 8 0
BBX 8 16 0 0
BITMAP
00
00
00
00
3C
42
42
02
0C
10
20
40
40
7E
00
00
ENDCHAR
STARTCHAR char51
ENCODING 51
SWIDTH 960 0
DWIDTH 8 0
BBX 8 16 0 0
BITMAP
00
00
00
00
3C
42
42
02
1C
02
02
42
42
3C
00
00
ENDCHAR
STARTCHAR char52
ENCODING 52
SWIDTH 960 0
DWIDTH 8 0
BBX 8 16 0 0
BITMAP
00
00
00
00
04
0C
14
24
44
44
7E
04
04
04
00
00
ENDCHAR
STARTCHAR char53
ENCODING 53
SWIDTH 960 0
DWIDTH 8 0
BBX 8 16 0 0
BITMAP
00
00
00
00
7E
40
40
40
7C
02
02
02
42
3C
00
00
ENDCHAR
STARTCHAR char54
ENCODING 54
SWIDTH 960 0
DWIDTH 8 0
BBX 8 16 0 0
BITMAP
00
00
00
00
1C
20
40
40
7C
42
42
42
42
3C
00
00
ENDCHAR
STARTCHAR char55
ENCODING 55
SWIDTH 960 0
DWIDTH 8 0
BBX 8 16 0 0
BITMAP
00
00
00
00
7E
02
02
04
04
04
08
08
08
08
00
00
ENDCHAR
STARTCHAR char56
ENCODING 56
SWIDTH 960 0
DWIDTH 8 0
BBX 8 16 0 0
BITMAP
00
00
00
00
3C
42
42
42
3C
42
42
42
42
3C
00
00
ENDCHAR
STARTCHAR char57
ENCODING 57
SWIDTH 960 0
DWIDTH 8 0
BBX 8 16 0 0
BITMAP
00
00
00
00
3C
42
42
42
3E
02
02
02
04
38
00
00
ENDCHAR
STARTCHAR char58
ENCODING 58
SWIDTH 960 0
DWIDTH 8 0
BBX 8 16 0 0
BITMAP
00
00
00
00
00
00
18
18
00
00
00
18
18
00
00
00
ENDCHAR
STARTCHAR char59
ENCODING 59
SWIDTH 960 0
DWIDTH 8 0
BBX 8 16 0 0
BITMAP
00
00
00
00
00
00
18
18
00
00
00
18
08
08
10
00
ENDCHAR
STARTCHAR char60
ENCODING 60
SWIDTH 960 0
DWIDTH 8 0
BBX 8 16 0 0
BITMAP
00
00
00
00
00
02
04
08
10
20
10
08
04
02
00
00
ENDCHAR
STARTCHAR char61
ENCODING 61
SWIDTH 960 0
DWIDTH 8 0
BBX 8 16 0 0
BITMAP
00
00
00
00
00
00
00
7E
00
00
00
7E
00
00
00
00
ENDCHAR
STARTCHAR char62
ENCODING 62
SWIDTH 960 0
DWIDTH 8 0
BBX 8 16 0 0
BITMAP
00
00
00
00
00
40
20
10
08
04
08
10
20
40
00
00
ENDCHAR
STARTCHAR char63
ENCODING 63
SWIDTH 960 0
DWIDTH 8 0
BBX 8 16 0 0
BITMAP
00
00
00
00
3C
42
42
02
04
08
08
00
08
08
00
00
ENDCHAR
STARTCHAR char64
ENCODING 64
SWIDTH 960 0
DWIDTH 8 0
BBX 8 16 0 0
BITMAP
00
00
00
00
1C
22
4A
56
52
52
52
4E
20
1E
00
00
ENDCHAR
STARTCHAR char65
ENCODING 65
SWIDTH 960 0
DWIDTH 8 0
BBX 8 16 0 0
BITMAP
00
00
00
00
18
24
24
42
42
7E
42
42
42
42
00
00
ENDCHAR
STARTCHAR char66
ENCODING 66
SWIDTH 960 0
DWIDTH 8 0
BBX 8 16 0 0
BITMAP
00
00
00
00
7C
42
42
42
7C
42
42
42
42
7C
00
00
ENDCHAR
STARTCHAR char67
ENCODING 67
SWIDTH 960 0
DWIDTH 8 0
BBX 8 16 0 0
BITMAP
00
00
00
00
3C
42
42
40
40
40
40
42
42
3C
00
00
ENDCHAR
STARTCHAR char68
ENCODING 68
SWIDTH 960 0
DWIDTH 8 0
BBX 8 16 0 0
BITMAP
00
00
00
00
78
44
42
42
42
42
42
42
44
78
00
00
ENDCHAR
STARTCHAR char69
ENCODING 69
SWIDTH 960 0
DWIDTH 8 0
BBX 8 16 0 0
BITMAP
00
00
00
00
7E
40
40
40
7C
40
40
40
40
7E
00
00
ENDCHAR
STARTCHAR char70
ENCODING 70
SWIDTH 960 0
DWIDTH 8 0
BBX 8 16 0 0
BITMAP
00
00
00
00
7E
40
40
40
7C
40
40
40
40
40
00
00
ENDCHAR
STARTCHAR char71
ENCODING 71
SWIDTH 960 0
DWIDTH 8 0
BBX 8 16 0 0
BITMAP
00
00
00
00
3C
42
42
40
40
4E
42
42
46
3A
00
00
ENDCHAR
STARTCHAR char72
ENCODING 72
SWIDTH 960 0
DWIDTH 8 0
BBX 8 16 0 0
BITMAP
00
00
00
00
42
42
42
42
7E
42
42
42
42
42
00
00
ENDCHAR
STARTCHAR char73
ENCODING 73
SWIDTH 960 0
DWIDTH 8 0
BBX 8 16 0 0
BITMAP
00
00
00
00
3E
08
08
08
08
08
08
08
08
3E
00
00
ENDCHAR
STARTCHAR char74
ENCODING 74
SWIDTH 960 0
DWIDTH 8 0
BBX 8 16 0 0
BITMAP
00
00
00
00
1F
04
04
04
04
04
04
44
44
38
00
00
ENDCHAR
STARTCHAR char75
ENCODING 75
SWIDTH 960 0
DWIDTH 8 0
BBX 8 16 0 0
BITMAP
00
00
00
00
42
44
48
50
60
60
50
48
44
42
00
00
ENDCHAR
STARTCHAR char76
ENCODING 76
SWIDTH 960 0
DWIDTH 8 0
BBX 8 16 0 0
BITMAP
00
00
00
00
40
40
40
40
40
40
40
40
40
7E
00
00
ENDCHAR
STARTCHAR char77
ENCODING 77
SWIDTH 960 0
DWIDTH 8 0
BBX 8 16 0 0
BITMAP
00
00
00
00
42
42
66
66
5A
5A
42
42
42
42
00
00
ENDCHAR
STARTCHAR char78
ENCODING 78
SWIDTH 960 0
DWIDTH 8 0
BBX 8 16 0 0
BITMAP
00
00
00
00
42
62
62
52
52
4A
4A
46
46
42
00
00
ENDCHAR
STARTCHAR char79
ENCODING 79
SWIDTH 960 0
DWIDTH 8 0
BBX 8 16 0 0
BITMAP
00
00
00
00
3C
42
42
42
42
42
42
42
42
3C
00
00
ENDCHAR
STARTCHAR char80
ENCODING 80
SWIDTH 960 0
DWIDTH 8 0
BBX 8 16 0 0
BITMAP
00
00
00
00
7C
42
42
42
7C
40
40
40
40
40
00
00
ENDCHAR
STARTCHAR char81
ENCODING 81
SWIDTH 960 0
DWIDTH 8 0
BBX 8 16 0 0
BITMAP
00
00
00
00
3C
42
42
42
42
42
42
5A
66
3C
03
00
ENDCHAR
STARTCHAR char82
ENCODING 82
SWIDTH 960 0
DWIDTH 8 0
BBX 8 16 0 0
BITMAP
00
00
00
00
7C
42
42
42
7C
48
44
44
42
42
00
00
ENDCHAR
STARTCHAR char83
ENCODING 83
SWIDTH 960 0
DWIDTH 8 0
BBX 8 16 0 0
BITMAP
00
00
00
00
3C
42
42
40
30
0C
02
42
42
3C
00
00
ENDCHAR
STARTCHAR char84
ENCODING 84
SWIDTH 960 0
DWIDTH 8 0
BBX 8 16 0 0
BITMAP
00
00
00
00
7F
08
08
08
08
08
08
08
08
08
00
00
ENDCHAR
STARTCHAR char85
ENCODING 85
SWIDTH 960 0
DWIDTH 8 0
BBX 8 16 0 0
BITMAP
00
00
00
00
42
42
42
42
42
42
42
42
42
3C
00
00
ENDCHAR
STARTCHAR char86
ENCODING 86
SWIDTH 960 0
DWIDTH 8 0
BBX 8 16 0 0
BITMAP
00
00
00
00
41
41
41
22
22
22
14
14
08
08
00
00
ENDCHAR
STARTCHAR char87
ENCODING 87
SWIDTH 960 0
DWIDTH 8 0
BBX 8 16 0 0
BITMAP
00
00
00
00
42
42
42
42
5A
5A
66
66
42
42
00
00
ENDCHAR
STARTCHAR char88
ENCODING 88
SWIDTH 960 0
DWIDTH 8 0
BBX 8 16 0 0
BITMAP
00
00
00
00
42
42
24
24
18
18
24
24
42
42
00
00
ENDCHAR
STARTCHAR char89
ENCODING 89
SWIDTH 960 0
DWIDTH 8 0
BBX 8 16 0 0
BITMAP
00
00
00
00
41
41
22
22
14
08
08
08
08
08
00
00
ENDCHAR
STARTCHAR char90
ENCODING 90
SWIDTH 960 0
DWIDTH 8 0
BBX 8 16 0 0
BITMAP
00
00
00
00
7E
02
02
04
08
10
20
40
40
7E
00
00
ENDCHAR
STARTCHAR char91
ENCODING 91
SWIDTH 960 0
DWIDTH 8 0
BBX 8 16 0 0
BITMAP
00
00
00
0E
08
08
08
08
08
08
08
08
08
08
0E
00
ENDCHAR
STARTCHAR char92
ENCODING 92
SWIDTH 960 0
DWIDTH 8 0
BBX 8 16 0 0
BITMAP
00
00
00
00
40
40
20
10
10
08
08
04
02
02
00
00
ENDCHAR
STARTCHAR char93
ENCODING 93
SWIDTH 960 0
DWIDTH 8 0
BBX 8 16 0 0
BITMAP
00
00
00
70
10
10
10
10
10
10
10
10
10
10
70
00
ENDCHAR
STARTCHAR char94
ENCODING 94
SWIDTH 960 0
DWIDTH 8 0
BBX 8 16 0 0
BITMAP
00
00
18
24
42
00
00
00
00
00
00
00
00
00
00
00
ENDCHAR
STARTCHAR char95
ENCODING 95
SWIDTH 960 0
DWIDTH 8 0
BBX 8 16 0 0
BITMAP
00
00
00
00
00
00
00
00
00
00
00
00
00
00
7F
00
ENDCHAR
STARTCHAR char96
ENCODING 96
SWIDTH 960 0
DWIDTH 8 0
BBX 8 16 0 0
BITMAP
00
20
10
08
00
00
00
00
00
00
00
00
00
00
00
00
ENDCHAR
STARTCHAR char97
ENCODING 97
SWIDTH 960 0
DWIDTH 8 0
BBX 8 16 0 0
BITMAP
00
00
00
00
00
00
3C
42
02
3E
42
42
46
3A
00
00
ENDCHAR
STARTCHAR char98
ENCODING 98
SWIDTH 960 0
DWIDTH 8 0
BBX 8 16 0 0
BITMAP
00
00
00
40
40
40
5C
62
42
42
42
42
62
5C
00
00
ENDCHAR
STARTCHAR char99
ENCODING 99
SWIDTH 960 0
DWIDTH 8 0
BBX 8 16 0 0
BITMAP
00
00
00
00
00
00
3C
42
40
40
40
40
42
3C
00
00
ENDCHAR
STARTCHAR char100
ENCODING 100
SWIDTH 960 0
DWIDTH 8 0
BBX 8 16 0 0
BITMAP
00
00
00
02
02
02
3A
46
42
42
42
42
46
3A
00
00
ENDCHAR
STARTCHAR char101
ENCODING 101
SWIDTH 960 0
DWIDTH 8 0
BBX 8 16 0 0
BITMAP
00
00
00
00
00
00
3C
42
42
7E
40
40
42
3C
00
00
ENDCHAR
STARTCHAR char102
ENCODING 102
SWIDTH 960 0
DWIDTH 8 0
BBX 8 16 0 0
BITMAP
00
00
00
0C
10
10
10
7C
10
10
10
10
10
10
00
00
ENDCHAR
STARTCHAR char103
ENCODING 103
SWIDTH 960 0
DWIDTH 8 0
BBX 8 16 0 0
BITMAP
00
00
00
00
00
02
3A
44
44
44
38
20
3C
42
42
3C
ENDCHAR
STARTCHAR char104
ENCODING 104
SWIDTH 960 0
DWIDTH 8 0
BBX 8 16 0 0
BITMAP
00
00
00
40
40
40
5C
62
42
42
42
42
42
42
00
00
ENDCHAR
STARTCHAR char105
ENCODING 105
SWIDTH 960 0
DWIDTH 8 0
BBX 8 16 0 0
BITMAP
00
00
00
08
08
00
18
08
08
08
08
08
08
3E
00
00
ENDCHAR
STARTCHAR char106
ENCODING 106
SWIDTH 960 0
DWIDTH 8 0
BBX 8 16 0 0
BITMAP
00
00
00
04
04
00
0C
04
04
04
04
04
04
04
48
30
ENDCHAR
STARTCHAR char107
ENCODING 107
SWIDTH 960 0
DWIDTH 8 0
BBX 8 16 0 0
BITMAP
00
00
00
40
40
40
44
48
50
60
50
48
44
42
00
00
ENDCHAR
STARTCHAR char108
ENCODING 108
SWIDTH 960 0
DWIDTH 8 0
BBX 8 16 0 0
BITMAP
00
00
00
18
08
08
08
08
08
08
08
08
08
3E
00
00
ENDCHAR
STARTCHAR char109
ENCODING 109
SWIDTH 960 0
DWIDTH 8 0
BBX 8 16 0 0
BITMAP
00
00
00
00
00
00
76
49
49
49
49
49
49
49
00
00
ENDCHAR
STARTCHAR char110
ENCODING 110
SWIDTH 960 0
DWIDTH 8 0
BBX 8 16 0 0
BITMAP
00
00
00
00
00
00
5C
62
42
42
42
42
42
42
00
00
ENDCHAR
STARTCHAR char111
ENCODING 111
SWIDTH 960 0
DWIDTH 8 0
BBX 8 16 0 0
BITMAP
00
00
00
00
00
00
3C
42
42
42
42
42
42
3C
00
00
ENDCHAR
STARTCHAR char112
ENCODING 112
SWIDTH 960 0
DWIDTH 8 0
BBX 8 16 0 0
BITMAP
00
00
00
00
00
00
5C
62
42
42
42
42
62
5C
40
40
ENDCHAR
STARTCHAR char113
ENCODING 113
SWIDTH 960 0
DWIDTH 8 0
BBX 8 16 0 0
BITMAP
00
00
00
00
00
00
3A
46
42
42
42
42
46
3A
02
02
ENDCHAR
STARTCHAR char114
ENCODING 114
SWIDTH 960 0
DWIDTH 8 0
BBX 8 16 0 0
BITMAP
00
00
00
00
00
00
5C
62
42
40
40
40
40
40
00
00
ENDCHAR
STARTCHAR char115
ENCODING 115
SWIDTH 960 0
DWIDTH 8 0
BBX 8 16 0 0
BITMAP
00
00
00
00
00
00
3C
42
40
30
0C
02
42
3C
00
00
ENDCHAR
STARTCHAR char116
ENCODING 116
SWIDTH 960 0
DWIDTH 8 0
BBX 8 16 0 0
BITMAP
00
00
00
00
10
10
10
7C
10
10
10
10
10
0C
00
00
ENDCHAR
STARTCHAR char117
ENCODING 117
SWIDTH 960 0
DWIDTH 8 0
BBX 8 16 0 0
BITMAP
00
00
00
00
00
00
42
42
42
42
42
42
46
3A
00
00
ENDCHAR
STARTCHAR char118
ENCODING 118
SWIDTH 960 0
DWIDTH 8 0
BBX 8 16 0 0
BITMAP
00
00
00
00
00
00
42
42
42
24
24
24
18
18
00
00
ENDCHAR
STARTCHAR char119
ENCODING 119
SWIDTH 960 0
DWIDTH 8 0
BBX 8 16 0 0
BITMAP
00
00
00
00
00
00
41
49
49
49
49
49
49
36
00
00
ENDCHAR
STARTCHAR char120
ENCODING 120
SWIDTH 960 0
DWIDTH 8 0
BBX 8 16 0 0
BITMAP
00
00
00
00
00
00
42
42
24
18
18
24
42
42
00
00
ENDCHAR
STARTCHAR char121
ENCODING 121
SWIDTH 960 0
DWIDTH 8 0
BBX 8 16 0 0
BITMAP
00
00
00
00
00
00
42
42
42
42
42
26
1A
02
02
3C
ENDCHAR
STARTCHAR char122
ENCODING 122
SWIDTH 960 0
DWIDTH 8 0
BBX 8 16 0 0
BITMAP
00
00
00
00
00
00
7E
02
04
08
10
20
40
7E
00
00
ENDCHAR
STARTCHAR char123
ENCODING 123
SWIDTH 960 0
DWIDTH 8 0
BBX 8 16 0 0
BITMAP
00
00
00
0C
10
10
08
08
10
20
10
08
08
10
10
0C
ENDCHAR
STARTCHAR char124
ENCODING 124
SWIDTH 960 0
DWIDTH 8 0
BBX 8 16 0 0
BITMAP
00
00
08
08
08
08
08
08
08
08
08
08
08
08
08
08
ENDCHAR
STARTCHAR char125
ENCODING 125
SWIDTH 960 0
DWIDTH 8 0
BBX 8 16 0 0
BITMAP
00
00
00
30
08
08
10
10
08
04
08
10
10
08
08
30
ENDCHAR
STARTCHAR char126
ENCODING 126
SWIDTH 960 0
DWIDTH 8 0
BBX 8 16 0 0
BITMAP
00
00
00
31
49
46
00
00
00
00
00
00
00
00
00
00
ENDCHAR
STARTCHAR char65281
ENCODING 65281
SWIDTH 1920 0
DWIDTH 16 0
BBX 16 16 0 0
BITMAP
0300
0300
0300
0300
0300
0300
0300
0300
0300
0300
0000
0000
0300
0300
0000
0000
ENDCHAR
STARTCHAR char65282
ENCODING 65282
SWIDTH 1920 0
DWIDTH 16 0
BBX 16 16 0 0
BITMAP
0CC0
0CC0
0CC0
0CC0
0CC0
0CC0
0000
0000
0000
0000
0000
0000
0000
0000
0000
0000
ENDCHAR
STARTCHAR char65283
ENCODING 65283
SWIDTH 1920 0
DWIDTH 16 0
BBX 16 16 0 0
BITMAP
0CC0
0CC0
0CC0
0CC0
3FF0
3FF0
0CC0
0CC0
3FF0
3FF0
0CC0
0CC0
0CC0
0CC0
0000
0000
ENDCHAR
STARTCHAR char65284
ENCODING 65284
SWIDTH 1920 0
DWIDTH 16 0
BBX 16 16 0 0
BITMAP
0300
0300
0FF0
0FF0
3300
3300
0FC0
0FC0
0330
0330
3FC0
3FC0
0300
0300
0000
0000
ENDCHAR
STARTCHAR char65285
ENCODING 65285
SWIDTH 1920 0
DWIDTH 16 0
BBX 16 16 0 0
BITMAP
3C00
3C00
3C30
3C30
00C0
00C0
0300
0300
0C00
0C00
30F0
30F0
00F0
00F0
0000
0000
ENDCHAR
STARTCHAR char65286
ENCODING 65286
SWIDTH 1920 0
DWIDTH 16 0
BBX 16 16 0 0
BITMAP
0C00
0C00
3300
3300
3300
3300
0C00
0C00
3330
3330
30C0
30C0
0F30
0F30
0000
0000
ENDCHAR
STARTCHAR char65287
ENCODING 65287
SWIDTH 1920 0
DWIDTH 16 0
BBX 16 16 0 0
BITMAP
00C0
00C0
00C0
00C0
0300
0300
0000
0000
0000
0000
0000
0000
0000
0000
0000
0000
ENDCHAR
STARTCHAR char65288
ENCODING 65288
SWIDTH 1920 0
DWIDTH 16 0
BBX 16 16 0 0
BITMAP
0300
0300
0C00
0C00
3000
3000
3000
3000
3000
3000
0C00
0C00
0300
0300
0000
0000
ENDCHAR
STARTCHAR char65289
ENCODING 65289
SWIDTH 1920 0
DWIDTH 16 0
BBX 16 16 0 0
BITMAP
0300
0300
00C0
00C0
0030
0030
0030
0030
0030
0030
00C0
00C0
0300
0300
0000
0000
ENDCHAR
STARTCHAR char65290
ENCODING 65290
SWIDTH 1920 0
DWIDTH 16 0
BBX 16 16 0 0
BITMAP
0300
0300
3330
3330
0FC0
0FC0
0300
0300
0FC0
0FC0
3330
3330
0300
0300
0000
0000
ENDCHAR
STARTCHAR char65291
ENCODING 65291
SWIDTH 1920 0
DWIDTH 16 0
BBX 16 16 0 0
BITMAP
0000
0000
0300
0300
0300
0300
3FF0
3FF0
0300
0300
0300
0300
0000
0000
0000
0000
ENDCHAR
STARTCHAR char65292
ENCODING 65292
SWIDTH 1920 0
DWIDTH 16 0
BBX 16 16 0 0
BITMAP
0000
0000
0000
0000
0000
0000
0000
0000
0300
0300
0300
0300
0C00
0C00
0000
0000
ENDCHAR
STARTCHAR char65293
ENCODING 65293
SWIDTH 1920 0
DWIDTH 16 0
BBX 16 16 0 0
BITMAP
0000
0000
0000
0000
0000
0000
3FF0
3FF0
0000
0000
0000
0000
0000
0000
0000
0000
ENDCHAR
STARTCHAR char65294
ENCODING 65294
SWIDTH 1920 0
DWIDTH 16 0
BBX 16 16 0 0
BITMAP
0000
0000
0000
0000
0000
0000
0000
0000
0000
0000
0000
0000
0300
0300
0000
0000
ENDCHAR
STARTCHAR char65295
ENCODING 65295
SWIDTH 1920 0
DWIDTH 16 0
BBX 16 16 0 0
BITMAP
0000
0000
0030
0030
00C0
00C0
0300
0300
0C00
0C00
3000
3000
0000
0000
0000
0000
ENDCHAR
STARTCHAR char65296
ENCODING 65296
SWIDTH 1920 0
DWIDTH 16 0
BBX 16 16 0 0
BITMAP
0FC0
0FC0
3030
3030
30F0
30F0
3330
3330
3C30
3C30
3030
3030
0FC0
0FC0
0000
0000
ENDCHAR
STARTCHAR char65297
ENCODING 65297
SWIDTH 1920 0
DWIDTH 16 0
BBX 16 16 0 0
BITMAP
0300
0300
0F00
0F00
0300
0300
0300
0300
0300
0300
0300
0300
0FC0
0FC0
0000
0000
ENDCHAR
STARTCHAR char65298
ENCODING 65298
SWIDTH 1920 0
DWIDTH 16 0
BBX 16 16 0 0
BITMAP
0FC0
0FC0
3030
3030
0030
0030
03C0
03C0
0C00
0C00
3000
3000
3FF0
3FF0
0000
0000
ENDCHAR
STARTCHAR char65299
ENCODING 65299
SWIDTH 1920 0
DWIDTH 16 0
BBX 16 16 0 0
BITMAP
3FF0
3FF0
0030
0030
00C0
00C0
03C0
03C0
0030
0030
3030
3030
0FC0
0FC0
0000
0000
ENDCHAR
STARTCHAR char65300
ENCODING 65300
SWIDTH 1920 0
DWIDTH 16 0
BBX 16 16 0 0
BITMAP
00C0
00C0
03C0
03C0
0CC0
0CC0
30C0
30C0
3FF0
3FF0
00C0
00C0
00C0
00C0
0000
0000
ENDCHAR
STARTCHAR char65301
ENCODING 65301
SWIDTH 1920 0
DWIDTH 16 0
BBX 16 16 0 0
BITMAP
3FF0
3FF0
3000
3000
3FC0
3FC0
0030
0030
0030
0030
3030
3030
0FC0
0FC0
0000
0000
ENDCHAR
STARTCHAR char65302
ENCODING 65302
SWIDTH 1920 0
DWIDTH 16 0
BBX 16 16 0 0
BITMAP
03F0
03F0
0C00
0C00
3000
3000
3FC0
3FC0
3030
3030
3030
3030
0FC0
0FC0
0000
0000
ENDCHAR
STARTCHAR char65303
ENCODING 65303
SWIDTH 1920 0
DWIDTH 16 0
BBX 16 16 0 0
BITMAP
3FF0
3FF0
0030
0030
00C0
00C0
0300
0300
0C00
0C00
0C00
0C00
0C00
0C00
0000
0000
ENDCHAR
STARTCHAR char65304
ENCODING 65304
SWIDTH 1920 0
DWIDTH 16 0
BBX 16 16 0 0
BITMAP
0FC0
0FC0
3030
3030
3030
3030
0FC0
0FC0
3030
3030
3030
3030
0FC0
0FC0
0000
0000
ENDCHAR
STARTCHAR char65305
ENCODING 65305
SWIDTH 1920 0
DWIDTH 16 0
BBX 16 16 0 0
BITMAP
0FC0
0FC0
3030
3030
3030
3030
0FF0
0FF0
0030
0030
00C0
00C0
3F00
3F00
0000
0000
ENDCHAR
STARTCHAR char65306
ENCODING 65306
SWIDTH 1920 0
DWIDTH 16 0
BBX 16 16 0 0
BITMAP
0000
0000
0000
0000
0300
0300
0000
0000
0300
0300
0000
0000
0000
0000
0000
0000
ENDCHAR
STARTCHAR char65307
ENCODING 65307
SWIDTH 1920 0
DWIDTH 16 0
BBX 16 16 0 0
BITMAP
0000
0000
0000
0000
0300
0300
0000
0000
0300
0300
0300
0300
0C00
0C00
0000
0000
ENDCHAR
STARTCHAR char65308
ENCODING 65308
SWIDTH 1920 0
DWIDTH 16 0
BBX 16 16 0 0
BITMAP
00C0
00C0
0300
0300
0C00
0C00
3000
3000
0C00
0C00
0300
0300
00C0
00C0
0000
0000
ENDCHAR
STARTCHAR char65309
ENCODING 65309
SWIDTH 1920 0
DWIDTH 16 0
BBX 16 16 0 0
BITMAP
0000
0000
0000
0000
3FF0
3FF0
0000
0000
3FF0
3FF0
0000
0000
0000
0000
0000
0000
ENDCHAR
STARTCHAR char65310
ENCODING 65310
SWIDTH 1920 0
DWIDTH 16 0
BBX 16 16 0 0
BITMAP
0C00
0C00
0300
0300
00C0
00C0
0030
0030
00C0
00C0
0300
0300
0C00
0C00
0000
0000
ENDCHAR
STARTCHAR char65311
ENCODING 65311
SWIDTH 1920 0
DWIDTH 16 0
BBX 16 16 0 0
BITMAP
0FC0
0FC0
3030
3030
00C0
00C0
0300
0300
0300
0300
0000
0000
0300
0300
0000
0000
ENDCHAR
STARTCHAR char65312
ENCODING 65312
SWIDTH 1920 0
DWIDTH 16 0
BBX 16 16 0 0
BITMAP
0FC0
0FC0
3030
3030
3330
3330
33F0
33F0
33C0
33C0
3000
3000
0FF0
0FF0
0000
0000
ENDCHAR
STARTCHAR char65313
ENCODING 65313
SWIDTH 1920 0
DWIDTH 16 0
BBX 16 16 0 0
BITMAP
0300
0300
0CC0
0CC0
3030
3030
3030
3030
3FF0
3FF0
3030
3030
3030
3030
0000
0000
ENDCHAR
STARTCHAR char65314
ENCODING 65314
SWIDTH 1920 0
DWIDTH 16 0
BBX 16 16 0 0
BITMAP
3FC0
3FC0
3030
3030
3030
3030
3FC0
3FC0
3030
3030
3030
3030
3FC0
3FC0
0000
0000
ENDCHAR
STARTCHAR char65315
ENCODING 65315
SWIDTH 1920 0
DWIDTH 16 0
BBX 16 16 0 0
BITMAP
0FC0
0FC0
3030
3030
3000
3000
3000
3000
3000
3000
3030
3030
0FC0
0FC0
0000
0000
ENDCHAR
STARTCHAR char65316
ENCODING 65316
SWIDTH 1920 0
DWIDTH 16 0
BBX 16 16 0 0
BITMAP
3FC0
3FC0
3030
3030
3030
3030
3030
3030
3030
3030
3030
3030
3FC0
3FC0
0000
0000
ENDCHAR
STARTCHAR char65317
ENCODING 65317
SWIDTH 1920 0
DWIDTH 16 0
BBX 16 16 0 0
BITMAP
3FF0
3FF0
3000
3000
3000
3000
3FC0
3FC0
3000
3000
3000
3000
3FF0
3FF0
0000
0000
ENDCHAR
STARTCHAR char65318
ENCODING 65318
SWIDTH 1920 0
DWIDTH 16 0
BBX 16 16 0 0
BITMAP
3FF0
3FF0
3000
3000
3000
3000
3FC0
3FC0
3000
3000
3000
3000
3000
3000
0000
0000
ENDCHAR
STARTCHAR char65319
ENCODING 65319
SWIDTH 1920 0
DWIDTH 16 0
BBX 16 16 0 0
BITMAP
0FF0
0FF0
3000
3000
3000
3000
3000
3000
30F0
30F0
3030
3030
0FF0
0FF0
0000
0000
ENDCHAR
STARTCHAR char65320
ENCODING 65320
SWIDTH 1920 0
DWIDTH 16 0
BBX 16 16 0 0
BITMAP
3030
3030
3030
3030
3030
3030
3FF0
3FF0
3030
3030
3030
3030
3030
3030
0000
0000
ENDCHAR
STARTCHAR char65321
ENCODING 65321
SWIDTH 1920 0
DWIDTH 16 0
BBX 16 16 0 0
BITMAP
0FC0
0FC0
0300
0300
0300
0300
0300
0300
0300
0300
0300
0300
0FC0
0FC0
0000
0000
ENDCHAR
STARTCHAR char65322
ENCODING 65322
SWIDTH 1920 0
DWIDTH 16 0
BBX 16 16 0 0
BITMAP
0030
0030
0030
0030
0030
0030
0030
0030
0030
0030
3030
3030
0FC0
0FC0
0000
0000
ENDCHAR
STARTCHAR char65323
ENCODING 65323
SWIDTH 1920 0
DWIDTH 16 0
BBX 16 16 0 0
BITMAP
3030
3030
30C0
30C0
3300
3300
3C00
3C00
3300
3300
30C0
30C0
3030
3030
0000
0000
ENDCHAR
STARTCHAR char65324
ENCODING 65324
SWIDTH 1920 0
DWIDTH 16 0
BBX 16 16 0 0
BITMAP
3000
3000
3000
3000
3000
3000
3000
3000
3000
3000
3000
3000
3FF0
3FF0
0000
0000
ENDCHAR
STARTCHAR char65325
ENCODING 65325
SWIDTH 1920 0
DWIDTH 16 0
BBX 16 16 0 0
BITMAP
3030
3030
3CF0
3CF0
3330
3330
3330
3330
3030
3030
3030
3030
3030
3030
0000
0000
ENDCHAR
STARTCHAR char65326
ENCODING 65326
SWIDTH 1920 0
DWIDTH 16 0
BBX 16 16 0 0
BITMAP
3030
3030
3030
3030
3C30
3C30
3330
3330
30F0
30F0
3030
3030
3030
3030
0000
0000
ENDCHAR
STARTCHAR char65327
ENCODING 65327
SWIDTH 1920 0
DWIDTH 16 0
BBX 16 16 0 0
BITMAP
0FC0
0FC0
3030
3030
3030
3030
3030
3030
3030
3030
3030
3030
0FC0
0FC0
0000
0000
ENDCHAR
STARTCHAR char65328
ENCODING 65328
SWIDTH 1920 0
DWIDTH 16 0
BBX 16 16 0 0
BITMAP
3FC0
3FC0
3030
3030
3030
3030
3FC0
3FC0
3000
3000
3000
3000
3000
3000
0000
0000
ENDCHAR
STARTCHAR char65329
ENCODING 65329
SWIDTH 1920 0
DWIDTH 16 0
BBX 16 16 0 0
BITMAP
0FC0
0FC0
3030
3030
3030
3030
3030
3030
3330
3330
30C0
30C0
0F30
0F30
0000
0000
ENDCHAR
STARTCHAR char65330
ENCODING 65330
SWIDTH 1920 0
DWIDTH 16 0
BBX 16 16 0 0
BITMAP
3FC0
3FC0
3030
3030
3030
3030
3FC0
3FC0
3300
3300
30C0
30C0
3030
3030
0000
0000
ENDCHAR
STARTCHAR char65331
ENCODING 65331
SWIDTH 1920 0
DWIDTH 16 0
BBX 16 16 0 0
BITMAP
0FC0
0FC0
3030
3030
3000
3000
0FC0
0FC0
0030
0030
3030
3030
0FC0
0FC0
0000
0000
ENDCHAR
STARTCHAR char65332
ENCODING 65332
SWIDTH 1920 0
DWIDTH 16 0
BBX 16 16 0 0
BITMAP
3FF0
3FF0
0300
0300
0300
0300
0300
0300
0300
0300
0300
0300
0300
0300
0000
0000
ENDCHAR
STARTCHAR char65333
ENCODING 65333
SWIDTH 1920 0
DWIDTH 16 0
BBX 16 16 0 0
BITMAP
3030
3030
3030
3030
3030
3030
3030
3030
3030
3030
3030
3030
0FC0
0FC0
0000
0000
ENDCHAR
STARTCHAR char65334
ENCODING 65334
SWIDTH 1920 0
DWIDTH 16 0
BBX 16 16 0 0
BITMAP
3030
3030
3030
3030
3030
3030
3030
3030
3030
3030
0CC0
0CC0
0300
0300
0000
0000
ENDCHAR
STARTCHAR char65335
ENCODING 65335
SWIDTH 1920 0
DWIDTH 16 0
BBX 16 16 0 0
BITMAP
3030
3030
3030
3030
3030
3030
3330
3330
3330
3330
3CF0
3CF0
3030
3030
0000
0000
ENDCHAR
STARTCHAR char65336
ENCODING 65336
SWIDTH 1920 0
DWIDTH 16 0
BBX 16 16 0 0
BITMAP
3030
3030
3030
3030
0CC0
0CC0
0300
0300
0CC0
0CC0
3030
3030
3030
3030
0000
0000
ENDCHAR
STARTCHAR char65337
ENCODING 65337
SWIDTH 1920 0
DWIDTH 16 0
BBX 16 16 0 0
BITMAP
3030
3030
3030
3030
0CC0
0CC0
0300
0300
0300
0300
0300
0300
0300
0300
0000
0000
ENDCHAR
STARTCHAR char65338
ENCODING 65338
SWIDTH 1920 0
DWIDTH 16 0
BBX 16 16 0 0
BITMAP
3FF0
3FF0
0030
0030
00C0
00C0
0300
0300
0C00
0C00
3000
3000
3FF0
3FF0
0000
0000
ENDCHAR
STARTCHAR char65339
ENCODING 65339
SWIDTH 1920 0
DWIDTH 16 0
BBX 16 16 0 0
BITMAP
3FF0
3FF0
3C00
3C00
3C00
3C00
3C00
3C00
3C00
3C00
3C00
3C00
3FF0
3FF0
0000
0000
ENDCHAR
STARTCHAR char65340
ENCODING 65340
SWIDTH 1920 0
DWIDTH 16 0
BBX 16 16 0 0
BITMAP
0000
0000
3000
3000
0C00
0C00
0300
0300
00C0
00C0
0030
0030
0000
0000
0000
0000
ENDCHAR
STARTCHAR char65341
ENCODING 65341
SWIDTH 1920 0
DWIDTH 16 0
BBX 16 16 0 0
BITMAP
3FF0
3FF0
00F0
00F0
00F0
00F0
00F0
00F0
00F0
00F0
00F0
00F0
3FF0
3FF0
0000
0000
ENDCHAR
STARTCHAR char65342
ENCODING 65342
SWIDTH 1920 0
DWIDTH 16 0
BBX 16 16 0 0
BITMAP
0000
0000
0000
0000
0300
0300
0CC0
0CC0
3030
3030
0000
0000
0000
0000
0000
0000
ENDCHAR
STARTCHAR char65343
ENCODING 65343
SWIDTH 1920 0
DWIDTH 16 0
BBX 16 16 0 0
BITMAP
0000
0000
0000
0000
0000
0000
0000
0000
0000
0000
0000
0000
3FF0
3FF0
0000
0000
ENDCHAR
STARTCHAR char65344
ENCODING 65344
SWIDTH 1920 0
DWIDTH 16 0
BBX 16 16 0 0
BITMAP
0C00
0C00
0C00
0C00
0300
0300
0000
0000
0000
0000
0000
0000
0000
0000
0000
0000
ENDCHAR
STARTCHAR char65345
ENCODING 65345
SWIDTH 1920 0
DWIDTH 16 0
BBX 16 16 0 0
BITMAP
0000
0000
0000
0000
0F30
0F30
30F0
30F0
3030
3030
30F0
30F0
0F30
0F30
0000
0000
ENDCHAR
STARTCHAR char65346
ENCODING 65346
SWIDTH 1920 0
DWIDTH 16 0
BBX 16 16 0 0
BITMAP
3000
3000
3000
3000
33C0
33C0
3C30
3C30
3030
3030
3C30
3C30
33C0
33C0
0000
0000
ENDCHAR
STARTCHAR char65347
ENCODING 65347
SWIDTH 1920 0
DWIDTH 16 0
BBX 16 16 0 0
BITMAP
0000
0000
0000
0000
03F0
03F0
0C00
0C00
0C00
0C00
0C00
0C00
03F0
03F0
0000
0000
ENDCHAR
STARTCHAR char65348
ENCODING 65348
SWIDTH 1920 0
DWIDTH 16 0
BBX 16 16 0 0
BITMAP
0030
0030
0030
0030
0F30
0F30
30F0
30F0
3030
3030
30F0
30F0
0F30
0F30
0000
0000
ENDCHAR
STARTCHAR char65349
ENCODING 65349
SWIDTH 1920 0
DWIDTH 16 0
BBX 16 16 0 0
BITMAP
0000
0000
0000
0000
0FC0
0FC0
3030
3030
3FF0
3FF0
3000
3000
0FC0
0FC0
0000
0000
ENDCHAR
STARTCHAR char65350
ENCODING 65350
SWIDTH 1920 0
DWIDTH 16 0
BBX 16 16 0 0
BITMAP
00C0
00C0
0300
0300
0300
0300
0FC0
0FC0
0300
0300
0300
0300
0300
0300
0000
0000
ENDCHAR
STARTCHAR char65351
ENCODING 65351
SWIDTH 1920 0
DWIDTH 16 0
BBX 16 16 0 0
BITMAP
0000
0000
0000
0000
0F30
0F30
30F0
30F0
3030
3030
0FF0
0FF0
0030
0030
0FC0
0FC0
ENDCHAR
STARTCHAR char65352
ENCODING 65352
SWIDTH 1920 0
DWIDTH 16 0
BBX 16 16 0 0
BITMAP
3000
3000
3000
3000
3FC0
3FC0
3030
3030
3030
3030
3030
3030
3030
3030
0000
0000
ENDCHAR
STARTCHAR char65353
ENCODING 65353
SWIDTH 1920 0
DWIDTH 16 0
BBX 16 16 0 0
BITMAP
0300
0300
0000
0000
0F00
0F00
0300
0300
0300
0300
0300
0300
0FC0
0FC0
0000
0000
ENDCHAR
STARTCHAR char65354
ENCODING 65354
SWIDTH 1920 0
DWIDTH 16 0
BBX 16 16 0 0
BITMAP
00C0
00C0
0000
0000
00C0
00C0
00C0
00C0
00C0
00C0
00C0
00C0
00C0
00C0
0F00
0F00
ENDCHAR
STARTCHAR char65355
ENCODING 65355
SWIDTH 1920 0
DWIDTH 16 0
BBX 16 16 0 0
BITMAP
3000
3000
3000
3000
30C0
30C0
3300
3300
3F00
3F00
30C0
30C0
3030
3030
0000
0000
ENDCHAR
STARTCHAR char65356
ENCODING 65356
SWIDTH 1920 0
DWIDTH 16 0
BBX 16 16 0 0
BITMAP
0F00
0F00
0300
0300
0300
0300
0300
0300
0300
0300
0300
0300
0FC0
0FC0
0000
0000
ENDCHAR
STARTCHAR char65357
ENCODING 65357
SWIDTH 1920 0
DWIDTH 16 0
BBX 16 16 0 0
BITMAP
0000
0000
0000
0000
3CF0
3CF0
330C
330C
330C
330C
330C
330C
330C
330C
0000
0000
ENDCHAR
STARTCHAR char65358
ENCODING 65358
SWIDTH 1920 0
DWIDTH 16 0
BBX 16 16 0 0
BITMAP
0000
0000
0000
0000
3FC0
3FC0
3030
3030
3030
3030
3030
3030
3030
3030
0000
0000
ENDCHAR
STARTCHAR char65359
ENCODING 65359
SWIDTH 1920 0
DWIDTH 16 0
BBX 16 16 0 0
BITMAP
0000
0000
0000
0000
0FC0
0FC0
3030
3030
3030
3030
3030
3030
0FC0
0FC0
0000
0000
ENDCHAR
STARTCHAR char65360
ENCODING 65360
SWIDTH 1920 0
DWIDTH 16 0
BBX 16 16 0 0
BITMAP
0000
0000
0000
0000
33C0
33C0
3C30
3C30
3030
3030
3C30
3C30
33C0
33C0
3000
3000
ENDCHAR
STARTCHAR char65361
ENCODING 65361
SWIDTH 1920 0
DWIDTH 16 0
BBX 16 16 0 0
BITMAP
0000
0000
0000
0000
0F30
0F30
30F0
30F0
3030
3030
30F0
30F0
0F30
0F30
003C
003C
ENDCHAR
STARTCHAR char65362
ENCODING 65362
SWIDTH 1920 0
DWIDTH 16 0
BBX 16 16 0 0
BITMAP
0000
0000
0000
0000
33C0
33C0
3C00
3C00
3000
3000
3000
3000
3000
3000
0000
0000
ENDCHAR
STARTCHAR char65363
ENCODING 65363
SWIDTH 1920 0
DWIDTH 16 0
BBX 16 16 0 0
BITMAP
0000
0000
0000
0000
0FF0
0FF0
3000
3000
0FC0
0FC0
0030
0030
3FC0
3FC0
0000
0000
ENDCHAR
STARTCHAR char65364
ENCODING 65364
SWIDTH 1920 0
DWIDTH 16 0
BBX 16 16 0 0
BITMAP
0300
0300
0300
0300
3FF0
3FF0
0300
0300
0300
0300
0300
0300
0300
0300
0000
0000
ENDCHAR
STARTCHAR char65365
ENCODING 65365
SWIDTH 1920 0
DWIDTH 16 0
BBX 16 16 0 0
BITMAP
0000
0000
0000
0000
3030
3030
3030
3030
3030
3030
3030
3030
0FF0
0FF0
0000
0000
ENDCHAR
STARTCHAR char65366
ENCODING 65366
SWIDTH 1920 0
DWIDTH 16 0
BBX 16 16 0 0
BITMAP
0000
0000
0000
0000
3030
3030
3030
3030
0CC0
0CC0
0CC0
0CC0
0300
0300
0000
0000
ENDCHAR
STARTCHAR char65367
ENCODING 65367
SWIDTH 1920 0
DWIDTH 16 0
BBX 16 16 0 0
BITMAP
0000
0000
0000
0000
330C
330C
330C
330C
330C
330C
330C
330C
0CF0
0CF0
0000
0000
ENDCHAR
STARTCHAR char65368
ENCODING 65368
SWIDTH 1920 0
DWIDTH 16 0
BBX 16 16 0 0
BITMAP
0000
0000
0000
0000
3030
3030
0CC0
0CC0
0300
0300
0CC0
0CC0
3030
3030
0000
0000
ENDCHAR
STARTCHAR char65369
ENCODING 65369
SWIDTH 1920 0
DWIDTH 16 0
BBX 16 16 0 0
BITMAP
0000
0000
0000
0000
0C30
0C30
0C30
0C30
0C30
0C30
0FF0
0FF0
0030
0030
0FC0
0FC0
ENDCHAR
STARTCHAR char65370
ENCODING 65370
SWIDTH 1920 0
DWIDTH 16 0
BBX 16 16 0 0
BITMAP
0000
0000
0000
0000
3FF0
3FF0
00C0
00C0
0300
0300
0C00
0C00
3FF0
3FF0
0000
0000
ENDCHAR
STARTCHAR char65371
ENCODING 65371
SWIDTH 1920 0
DWIDTH 16 0
BBX 16 16 0 0
BITMAP
00F0
00F0
0300
0300
0300
0300
0C00
0C00
0300
0300
0300
0300
00F0
00F0
0000
0000
ENDCHAR
STARTCHAR char65372
ENCODING 65372
SWIDTH 1920 0
DWIDTH 16 0
BBX 16 16 0 0
BITMAP
0300
0300
0300
0300
0300
0300
0000
0000
0300
0300
0300
0300
0300
0300
0000
0000
ENDCHAR
STARTCHAR char65373
ENCODING 65373
SWIDTH 1920 0
DWIDTH 16 0
BBX 16 16 0 0
BITMAP
3C00
3C00
0300
0300
0300
0300
00C0
00C0
0300
0300
0300
0300
3C00
3C00
0000
0000
ENDCHAR
STARTCHAR char65374
ENCODING 65374
SWIDTH 1920 0
DWIDTH 16 0
BBX 16 16 0 0
BITMAP
0000
0000
0000
0000
0030
0030
0FC0
0FC0
3000
3000
0000
0000
0000
0000
0000
0000
ENDCHAR
ENDFONT
